<?xml version="1.0" standalone="no"?>
<!DOCTYPE svg PUBLIC "-//W3C//DTD SVG 20010904//EN"
 "http://www.w3.org/TR/2001/REC-SVG-20010904/DTD/svg10.dtd">
<svg version="1.0" xmlns="http://www.w3.org/2000/svg"
 width="640.000000pt" height="640.000000pt" viewBox="0 0 640.000000 640.000000"
 preserveAspectRatio="xMidYMid meet">
<metadata>
Created by potrace 1.14, written by Peter Selinger 2001-2017
</metadata>
<g transform="translate(0.000000,640.000000) scale(0.100000,-0.100000)"
fill="#000000" stroke="none">
<path d="M2820 6380 c-142 -19 -295 -49 -410 -80 -25 -7 -52 -13 -60 -15 -8
-2 -27 -8 -42 -14 -16 -6 -28 -8 -28 -5 0 4 -6 2 -12 -3 -7 -6 -40 -18 -73
-29 -33 -10 -62 -20 -65 -23 -3 -3 -12 -7 -20 -9 -32 -7 -191 -78 -310 -139
-168 -86 -396 -237 -534 -353 -171 -143 -348 -325 -460 -473 -30 -39 -61 -79
-68 -87 -19 -23 -153 -229 -174 -270 -11 -19 -22 -37 -27 -38 -4 -2 -5 -8 -1
-13 3 -5 0 -9 -6 -9 -6 0 -9 -4 -5 -9 3 -5 1 -12 -5 -16 -15 -9 -165 -334
-180 -390 -5 -20 -12 -41 -26 -77 -8 -21 -11 -38 -8 -38 4 0 2 -6 -4 -12 -8
-11 -23 -63 -58 -200 -24 -98 -55 -276 -68 -398 -21 -185 -14 -564 14 -745 11
-77 25 -156 30 -175 5 -19 11 -46 13 -60 3 -14 12 -56 22 -93 9 -37 18 -74 19
-82 1 -8 5 -18 9 -21 4 -4 7 -18 7 -31 0 -13 4 -23 8 -23 4 0 9 -12 10 -26 1
-15 7 -33 13 -40 6 -8 9 -14 6 -14 -5 0 35 -107 78 -210 44 -103 187 -374 205
-390 4 -3 10 -12 14 -20 20 -42 60 -101 154 -225 142 -187 349 -403 497 -516
17 -13 32 -26 35 -29 3 -4 32 -26 65 -51 33 -24 62 -46 65 -49 3 -3 12 -9 21
-15 9 -5 29 -19 45 -29 113 -76 196 -125 274 -164 30 -15 58 -31 61 -35 3 -5
8 -8 10 -6 3 1 41 -15 164 -71 79 -36 307 -116 364 -126 14 -3 28 -7 33 -10 5
-3 18 -7 31 -10 12 -2 33 -6 47 -10 25 -6 59 -12 95 -19 11 -2 20 -4 20 -5 0
-2 37 -10 75 -15 19 -2 44 -6 55 -9 11 -2 49 -7 85 -11 36 -3 76 -8 90 -10 14
-2 69 -5 122 -7 54 -2 98 -7 98 -11 0 -5 4 -6 9 -2 5 3 79 8 163 10 84 3 171
8 193 10 22 2 60 6 85 9 25 3 59 8 75 11 17 4 46 9 65 11 67 9 85 12 85 14 0
2 37 11 65 14 14 2 35 6 47 10 12 4 30 9 40 11 78 19 108 27 117 33 13 8 43
14 73 16 11 1 19 5 15 10 -3 5 2 7 10 3 9 -3 20 -1 25 4 13 13 14 -92 1 -108
-6 -7 -15 -10 -21 -6 -6 3 -7 1 -3 -6 6 -9 11 -9 21 -1 11 9 14 5 13 -21 -1
-18 4 -35 10 -37 7 -2 12 -10 12 -18 0 -8 9 -14 19 -14 20 0 35 -25 24 -42 -4
-7 -1 -8 6 -4 7 5 10 14 7 22 -5 12 -2 12 17 2 27 -15 40 -15 91 -5 33 7 103
47 81 47 -4 0 0 11 9 25 9 13 17 32 19 42 1 10 6 24 11 32 10 16 12 142 3 191
-6 32 -4 37 23 53 16 10 30 15 30 10 0 -4 4 -3 8 2 4 6 41 28 82 49 41 22 120
69 175 105 55 36 105 68 112 71 6 3 25 17 42 33 17 15 33 27 37 27 9 0 139
109 233 195 43 40 146 144 216 219 77 81 227 283 308 412 119 190 283 546 313
679 4 17 10 35 14 40 4 6 8 17 8 25 0 8 14 66 31 129 60 227 88 461 89 736 0
202 -9 313 -40 495 -11 69 -22 134 -24 145 -1 11 -3 20 -4 20 -3 0 -24 83 -35
140 -4 17 -11 39 -16 50 -5 11 -11 29 -12 40 -2 11 -7 27 -10 35 -3 8 -15 44
-27 80 -48 141 -162 390 -229 500 -11 19 -24 42 -28 50 -8 18 -162 248 -180
270 -8 8 -48 58 -90 110 -183 226 -503 507 -728 640 -22 13 -42 26 -45 29 -31
35 -503 256 -521 245 -5 -3 -9 -1 -9 4 0 5 -6 9 -12 10 -11 1 -109 32 -158 50
-8 3 -19 6 -25 7 -5 2 -39 11 -75 20 -36 9 -72 18 -80 20 -8 2 -37 8 -65 15
-178 40 -302 52 -585 55 -234 3 -309 0 -420 -15z"/>
<path d="M4176 438 c3 -5 10 -6 15 -3 13 9 11 12 -6 12 -8 0 -12 -4 -9 -9z"/>
<path d="M4110 357 c0 -2 6 -10 14 -16 11 -9 16 -9 22 1 4 7 4 10 -1 6 -4 -4
-14 -3 -22 3 -7 6 -13 9 -13 6z"/>
<path d="M4197 268 c19 -21 31 -25 14 -5 -6 8 -9 16 -6 19 3 2 -2 5 -10 5 -13
0 -13 -3 2 -19z"/>
<path d="M4286 182 c-3 -5 1 -9 9 -9 8 0 12 4 9 9 -3 4 -7 8 -9 8 -2 0 -6 -4
-9 -8z"/>
</g>
</svg>
